<?xml version="1.0" encoding="UTF-8"?>
<svg width="800" height="800" version="1.1" viewBox="0 0 800.00001 800.00001" xmlns="http://www.w3.org/2000/svg">
 <defs>
  <linearGradient id="c" x1="388.62" x2="5.764" y1="389.35" y2="797.92" gradientUnits="userSpaceOnUse">
   <stop offset="0"/>
   <stop stop-opacity="0" offset="1"/>
  </linearGradient>
  <mask id="b" maskUnits="userSpaceOnUse">
   <circle cx="400" cy="652.36" r="400" color="#000000" color-rendering="auto" fill="#fff" image-rendering="auto" shape-rendering="auto" solid-color="#000000" style="isolation:auto;mix-blend-mode:normal"/>
  </mask>
  <mask id="a" maskUnits="userSpaceOnUse">
   <circle cx="400" cy="400" r="400" color="#000000" color-rendering="auto" fill="#fff" image-rendering="auto" shape-rendering="auto" solid-color="#000000" style="isolation:auto;mix-blend-mode:normal"/>
  </mask>
 </defs>
 <g transform="translate(0 -252.36)">
  <circle cx="400" cy="652.36" r="400" color="#000000" color-rendering="auto" fill="#1c8adb" image-rendering="auto" shape-rendering="auto" solid-color="#000000" style="isolation:auto;mix-blend-mode:normal"/>
  <path transform="translate(0 252.36)" d="m405 199c-22.457 0-43.271 2.9212-62.441 8.7637-18.988 5.6598-36.243 13.511-51.762 23.553-11.84 7.661-22.612 16.441-32.326 26.334l-248.95 249.33c9.3898 202.92 142.19 253.95 289.57 287.04l231.33-231.33-15.203-31.676 51.42-51.449s5.8177-6.0286 8.4238-9.4414c7.6682-10.042 13.511-22.274 17.527-36.697 4.0167-14.424 6.0254-30.766 6.0254-49.023 0-20.449-2.5558-39.254-7.668-56.416-5.1121-17.162-12.142-32.59-21.088-46.283-8.9463-13.693-19.537-25.651-31.77-35.875-12.233-10.407-25.561-19.08-39.984-26.018-14.241-6.938-29.303-12.142-45.188-15.611-15.884-3.4689-31.859-5.2031-47.926-5.2031z" fill="url(#c)" mask="url(#a)" opacity=".42"/>
  <path d="m598.62 636.77q0 27.387-6.0251 49.022t-17.527 36.698q-11.502 15.063-28.208 23.279-16.432 7.9422-37.793 7.9422-3.8342 0-11.502-1.0951-7.3945-1.0951-15.884-5.4772-8.216-4.6558-16.158-13.42-7.942-8.7637-12.598-24.374-13.967 25.743-32.042 38.341t-37.793 12.598q-14.789 0-29.03-6.2989-13.967-6.2989-24.922-18.897-10.955-12.872-17.527-32.042-6.5728-19.444-6.5728-45.462 0-27.113 6.5728-46.283 6.8466-19.171 17.527-31.221 10.955-12.324 24.374-17.801 13.693-5.7511 27.387-5.7511 9.5852 0 18.623 2.4648 9.3114 2.1909 17.254 6.8466 7.9422 4.3818 14.515 10.955 6.5728 6.2989 10.681 14.515l9.8592-29.851h42.997v128.44q0 16.432 4.9296 23.552 4.9295 7.1205 12.324 7.1205 8.7637 0 14.515-4.6557 6.0251-4.6557 9.8592-12.05 3.834-7.6683 5.7511-16.98 2.1909-9.5852 3.0126-18.897 1.0951-9.3114 1.0951-17.527 0.27342-8.2159 0.27342-13.693 0-32.864-10.407-57.512-10.407-24.922-29.304-41.354-18.623-16.706-44.914-24.922-26.017-8.4899-57.238-8.4899-24.374 0-44.914 6.5728-20.54 6.2989-36.972 17.801-16.158 11.228-28.482 26.565-12.324 15.336-20.814 33.412-8.216 17.801-12.324 37.52-4.108 19.444-4.108 38.889 0 27.387 7.9422 53.13 7.942 25.47 24.374 45.462 16.432 19.718 41.628 31.768 25.469 12.05 60.25 12.05 25.743 0 54.773-7.942 29.03-8.216 64.632-25.743l19.718 41.08q-40.258 22.183-75.861 32.59-35.329 10.133-67.645 10.133-49.022 0-85.172-16.158-35.876-16.158-59.429-42.723-23.552-26.839-35.055-61.072-11.502-34.507-11.502-71.205 0-26.291 6.0251-52.582 6.2989-26.291 18.075-50.117 12.05-23.826 29.851-44.366 17.801-20.814 41.08-35.876 23.279-15.063 51.761-23.552 28.756-8.7637 62.441-8.7637 24.1 0 47.926 5.2034t45.188 15.61q21.635 10.407 39.984 26.017 18.349 15.336 31.768 35.876t21.088 46.283q7.6683 25.743 7.6683 56.416zm-164.87-18.897q-18.075-18.349-32.316-18.349-7.3943 0-13.419 4.3818-6.0251 4.108-10.407 11.776-4.108 7.3943-6.2989 18.075-2.1909 10.681-2.1909 23.826 0 12.872 2.4648 22.731 2.7388 9.5852 7.1206 16.158 4.3818 6.2989 9.8591 9.5854 5.7512 3.0125 12.05 3.0125 9.0376 0 18.075-7.6682 9.0376-7.9422 15.063-23.552v-59.977z" fill="#fff" mask="url(#b)"/>
 </g>
</svg>
