<?xml version='1.0' encoding='utf-8'?>
<svg xmlns="http://www.w3.org/2000/svg" viewBox="0 0 800 800"><defs><clipPath id="a"><circle cx="400" cy="400" r="400" style="fill:none"/></clipPath><linearGradient id="b" x1="435.022" y1="478.022" x2="221.521" y2="691.522" gradientUnits="userSpaceOnUse"><stop offset="0"/><stop offset="1" stop-opacity="0"/></linearGradient></defs><title>statistik-1</title><circle cx="400" cy="400" r="400" style="fill:#1c8adb"/><g style="clip-path:url(#a)"><path d="M477.611,344.537"/><path d="M335.25,797.25,569.833,562.667V346.908H478.7L416.385,409.22h-3.456L517.1,305.05l15.155-67.717-67.717,15.155L383.021,334l-2.283-2.24a13.5,13.5,0,0,0-19,.089L58.544,635.044C113.872,718.793,203.471,774.983,335.25,797.25Z" style="opacity:0.42;fill:url(#b)"/><path d="M426.844,290.18"/><rect x="230.167" y="471.531" width="91.136" height="91.136" style="fill:#fff"/><rect x="354.432" y="409.22" width="91.136" height="153.448" style="fill:#fff"/><rect x="478.697" y="346.908" width="91.136" height="215.759" style="fill:#fff"/><path d="M275.907,450.272a13.46,13.46,0,0,0,9.546-3.954L371.37,360.4l19.173,18.819a13.5,13.5,0,0,0,19-.088l90.817-90.817L517.1,305.05l15.155-67.717-67.717,15.155,16.735,16.735-81.359,81.36-19.174-18.82a13.5,13.5,0,0,0-19,.089l-95.375,95.375a13.5,13.5,0,0,0,9.546,23.045Z" style="fill:#fff"/></g></svg>